<!DOCTYPE svg PUBLIC "-//W3C//DTD SVG 1.0//EN" "http://www.w3.org/TR/2001/REC-SVG-20010904/DTD/svg10.dtd"[]><svg xmlns="http://www.w3.org/2000/svg" xmlns:xlink="http://www.w3.org/1999/xlink" id="body_1" width="20" height="18" viewBox="0 0 100 90"><g transform="matrix(0.2710027 0 0 0.26865673 0 0)"><g transform="matrix(0.18017578 0 0 0.1798175 0 0)"><path transform="matrix(1 0 0 1 1112.4233 -0.39111328)" d="M0 0C 4.7563095 0.01711489 9.5121155 0.00687637 14.268408 -0.01031971C 46.906055 -0.110174 79.327324 1.5535753 111.70166 5.8286133C 113.41129 6.047539 115.12101 6.2657814 116.83081 6.4833984C 120.19655 6.913373 123.561424 7.349398 126.92578 7.790039C 131.15646 8.341517 135.3907 8.853167 139.62744 9.355957C 156.59279 11.415877 173.18904 14.571019 189.87892 18.175919C 194.55437 19.183294 199.23978 20.112076 203.93896 21.000732C 212.68684 22.659967 221.22064 24.839975 229.79053 27.25293C 234.6982 28.630323 239.568 29.860352 244.57666 30.828613C 251.77066 32.27608 258.6521 34.567486 265.61694 36.843994C 270.30716 38.371807 274.94714 39.807117 279.76416 40.891113C 285.6876 42.27889 291.27325 44.41661 296.9541 46.56299C 302.9695 48.82806 309.02884 50.89762 315.13916 52.891113C 328.5151 57.28455 341.50928 62.43798 354.4126 68.05908C 357.2965 69.27317 360.1868 70.35737 363.13916 71.39111C 368.30295 73.21362 373.2059 75.465965 378.14307 77.82861C 380.7658 79.022125 383.36197 80.09581 386.0454 81.1333C 393.03546 83.90125 399.76004 87.225494 406.51416 90.51611C 407.1975 90.84782 407.8809 91.17952 408.58496 91.52127C 419.023 96.59012 429.36682 101.806206 439.58008 107.31641C 441.52335 108.36241 443.47244 109.39646 445.42432 110.42627C 452.40912 114.11571 459.34778 117.88749 466.26416 121.70361C 467.03122 122.12449 467.7983 122.54537 468.58862 122.979004C 472.11212 124.93287 475.38507 126.92021 478.57666 129.39111C 480.42612 130.29903 482.27585 131.20631 484.12744 132.10986C 494.31918 137.44142 503.9436 144.10844 513.57666 150.39111C 514.1986 150.7962 514.8206 151.2013 515.4614 151.61865C 523.1781 156.65932 530.6908 161.84752 537.9907 167.48096C 540.488 169.39156 540.488 169.39156 542.959 170.80957C 545.42773 172.30113 547.7268 173.8926 550.0454 175.60596C 550.86395 176.20988 551.6825 176.81381 552.5259 177.43604C 553.3676 178.0606 554.2094 178.68513 555.07666 179.32861C 556.3393 180.25964 556.3393 180.25964 557.62744 181.20947C 561.67236 184.20016 565.6545 187.24051 569.57666 190.39111C 570.8406 191.2761 572.11053 192.15254 573.38916 193.01611C 574.44104 193.79987 575.4929 194.58362 576.57666 195.39111C 576.57666 196.05112 576.57666 196.71112 576.57666 197.39111C 577.1129 197.63861 577.6492 197.88611 578.20166 198.14111C 583.1412 200.74086 587.37085 203.9792 591.5454 207.64111C 593.9082 209.67676 596.3343 211.62354 598.76416 213.57861C 603.3922 217.34447 607.78516 221.29498 612.1477 225.35889C 616.0823 228.99991 620.178 232.36348 624.4204 235.6372C 626.62695 237.43204 628.5812 239.36693 630.57666 241.39111C 631.546 242.1955 632.5154 242.99986 633.51416 243.82861C 637.17145 246.88881 640.4433 250.22536 643.76416 253.64111C 646.3127 256.133 648.92096 258.51477 651.57666 260.8911C 656.5309 265.33383 661.13666 269.8788 665.51416 274.8911C 668.63556 278.4392 671.9379 281.37173 675.57666 284.3911C 678.0012 286.98138 680.29193 289.67737 682.57666 292.3911C 685.37244 295.69833 688.13745 298.95193 691.20166 302.0161C 693.53735 304.3518 695.5152 306.8143 697.57666 309.3911C 699.2405 311.0606 700.9076 312.72687 702.57666 314.3911C 708.7679 320.93878 714.7151 327.6159 720.3618 334.6411C 721.93445 336.5937 723.52783 338.5296 725.13525 340.4536C 725.96155 341.4436 726.78784 342.43362 727.63916 343.4536C 728.7703 344.80133 728.7703 344.80133 729.9243 346.17627C 731.57666 348.3911 731.57666 348.3911 731.57666 350.3911C 732.56665 350.7211 733.55664 351.05112 734.57666 351.3911C 736.0845 353.28955 736.0845 353.28955 737.70166 355.7661C 740.26636 359.56204 742.94617 363.13037 745.88916 366.6411C 750.30853 371.95792 754.30524 377.5058 758.2837 383.15283C 760.5366 386.3346 762.84906 389.45706 765.2251 392.54736C 767.09894 395.10358 768.8294 397.74704 770.57666 400.3911C 771.4622 401.71948 771.4622 401.71948 772.3657 403.0747C 773.67725 405.04196 774.9884 407.00943 776.2993 408.97705C 777.8873 411.35938 779.47906 413.73914 781.07275 416.11768C 790.2557 429.83423 799.4184 443.63815 807.2993 458.15283C 808.7973 460.77777 810.42896 463.29507 812.07666 465.8286C 814.80817 470.07037 817.1553 474.3567 819.3501 478.89502C 820.5884 481.41495 821.9081 483.8702 823.26416 486.3286C 832.88837 503.84512 841.9732 521.6098 850.32666 539.7661C 851.01685 541.26404 851.01685 541.26404 851.72095 542.79224C 854.1964 548.2135 856.51935 553.66516 858.7007 559.21094C 859.8016 561.95087 861.04565 564.60614 862.32666 567.2661C 868.60394 580.7512 873.787 594.70526 878.7871 608.7053C 880.3452 613.0603 881.9556 617.37787 883.69385 621.66455C 885.12366 625.20233 886.3823 628.7248 887.45166 632.3911C 888.7835 636.8444 890.1929 641.2566 891.6909 645.65576C 895.10785 655.696 898.06616 665.8356 900.917 676.0493C 901.7965 679.1715 902.7213 682.28 903.63916 685.3911C 905.51666 691.9545 907.09436 698.5782 908.6467 705.22437C 909.68787 709.67896 910.75214 714.12305 911.9009 718.5513C 912.11884 719.3961 912.33673 720.2409 912.5613 721.1113C 912.9643 722.66406 913.37286 724.21545 913.7893 725.76465C 915.36395 731.8619 916.3776 738.01306 917.3812 744.22345C 918.2631 749.63513 919.25116 755.01544 920.33057 760.3911C 920.47876 761.13293 920.627 761.8748 920.7797 762.6391C 921.38116 765.64087 921.9858 768.6419 922.59985 771.6411C 924.58105 781.34814 926.09845 790.975 927.10034 800.83154C 927.5721 805.4695 928.1576 810.0889 928.76025 814.7114C 928.96826 816.339 929.17596 817.9666 929.3833 819.59424C 929.6917 822.01196 930.0026 824.4292 930.324 826.8452C 934.67444 859.6848 936.08716 892.56476 935.9678 925.6636C 935.9507 930.43567 935.9609 935.2072 935.9781 939.97925C 936.0788 972.96136 934.2839 1005.6662 930.07666 1038.3911C 929.8544 1040.1682 929.6328 1041.9454 929.41187 1043.7227C 929.08765 1046.3265 928.7623 1048.9303 928.4323 1051.5334C 927.866 1056.0055 927.3375 1060.4777 926.8696 1064.9614C 925.05145 1081.9661 921.48035 1098.6315 918.0081 1115.3604C 916.94946 1120.4856 915.9741 1125.6205 915.0415 1130.77C 913.72363 1137.8861 912.0226 1144.8436 910.13916 1151.8286C 908.1498 1159.3279 906.20447 1166.8187 904.51416 1174.3911C 902.7989 1181.9641 900.48126 1189.3027 898.0845 1196.6841C 896.633 1201.1648 895.31244 1205.6765 894.01416 1210.2036C 892.1708 1216.5898 890.0458 1222.8282 887.75635 1229.0708C 886.616 1232.2803 885.6096 1235.5018 884.63916 1238.7661C 880.4848 1252.4872 874.8836 1265.7394 869.52734 1279.0239C 868.64685 1281.2163 867.7754 1283.412 866.9087 1285.6099C 864.41705 1291.9211 861.844 1298.167 858.9795 1304.3193C 857.71027 1307.0986 856.4878 1309.8944 855.27936 1312.7006C 851.2323 1322.076 846.86975 1331.2788 842.38916 1340.4536C 842.0218 1341.2079 841.6545 1341.9623 841.276 1342.7394C 836.56506 1352.4073 831.7903 1362.0375 826.82666 1371.5786C 826.1302 1372.9197 826.1302 1372.9197 825.4197 1374.2878C 823.01746 1378.8506 820.4683 1383.2585 817.69727 1387.6067C 816.19446 1389.9996 814.8469 1392.4626 813.51416 1394.9536C 809.629 1402.1965 805.4893 1409.2561 801.20166 1416.2661C 800.71124 1417.0684 800.2208 1417.8707 799.7156 1418.6973C 796.9548 1423.1962 794.1383 1427.6362 791.1626 1431.9966C 788.91254 1435.3938 786.7844 1438.8645 784.63916 1442.3286C 781.2892 1447.7273 777.84314 1453.0121 774.14307 1458.1802C 772.62573 1460.3218 771.19135 1462.5012 769.76416 1464.7036C 766.84863 1469.1119 763.6391 1473.2753 760.3965 1477.4441C 756.9794 1481.8422 753.69763 1486.3265 750.43994 1490.8442C 748.15515 1493.9673 745.77496 1497.0066 743.37744 1500.0435C 740.5623 1503.7135 737.9235 1507.5093 735.2759 1511.3013C 734.71515 1511.991 734.1544 1512.6805 733.57666 1513.3911C 732.9167 1513.3911 732.25665 1513.3911 731.57666 1513.3911C 731.3028 1513.9781 731.029 1514.5652 730.7468 1515.1699C 729.61224 1517.3235 728.3877 1519.0464 726.854 1520.9302C 726.31995 1521.5881 725.7858 1522.246 725.2356 1522.9238C 724.66754 1523.6143 724.0994 1524.3047 723.51416 1525.0161C 722.6379 1526.0885 722.6379 1526.0885 721.7439 1527.1826C 717.8353 1531.9382 713.801 1536.5498 709.63525 1541.0825C 706.72894 1544.3418 704.0588 1547.7739 701.3579 1551.2036C 699.26 1553.78 696.95734 1556.0765 694.57666 1558.3911C 693.9167 1559.2161 693.25665 1560.0411 692.57666 1560.8911C 690.402 1563.6095 688.0671 1565.956 685.57666 1568.3911C 679.4741 1574.3038 679.4741 1574.3038 673.82666 1580.6411C 670.2955 1584.957 666.3344 1588.6119 662.13916 1592.2661C 658.75305 1595.2429 655.8301 1598.3232 652.9751 1601.8013C 650.75714 1604.3228 648.1869 1606.2808 645.57666 1608.3911C 643.084 1610.823 640.6609 1613.3024 638.26416 1615.8286C 636.08636 1617.9052 634.0031 1619.5804 631.57666 1621.3286C 628.96436 1623.2355 627.2385 1624.7986 625.13916 1627.3286C 622.3921 1630.6117 619.4999 1632.8536 616.0962 1635.4106C 613.3162 1637.5958 610.7365 1639.9297 608.13916 1642.3286C 603.1322 1646.9381 597.93164 1651.1963 592.57666 1655.3911C 590.7837 1656.827 588.992 1658.2645 587.20166 1659.7036C 585.66425 1660.9381 584.12286 1662.1677 582.57666 1663.3911C 581.50543 1664.2477 581.50543 1664.2477 580.4126 1665.1216C 578.57666 1666.3911 578.57666 1666.3911 576.57666 1666.3911C 576.24664 1667.3811 575.9167 1668.3711 575.57666 1669.3911C 573.74854 1670.8638 573.74854 1670.8638 571.32666 1672.4536C 567.1197 1675.2964 563.077 1678.2701 559.07666 1681.3911C 554.6061 1684.861 550.08234 1688.2135 545.4204 1691.4224C 543.1573 1692.9891 540.9107 1694.5734 538.6704 1696.1724C 530.3434 1702.1094 521.94104 1707.8497 513.2915 1713.3057C 510.91266 1714.8114 508.54645 1716.3364 506.18018 1717.8618C 504.41797 1718.9976 502.65378 1720.1302 500.88916 1721.2622C 498.80246 1722.6033 496.7187 1723.949 494.63916 1725.3013C 489.31964 1728.7393 483.92572 1731.8711 478.33838 1734.852C 475.442 1736.4662 472.67114 1738.2126 469.88916 1740.0161C 466.20667 1742.3998 462.54346 1744.4863 458.58838 1746.3716C 456.25427 1747.5544 454.05524 1748.8949 451.82666 1750.2661C 446.24088 1753.6617 440.4443 1756.5192 434.57666 1759.3911C 431.90753 1760.7195 429.24225 1762.0557 426.57666 1763.3911C 425.1952 1764.0813 423.81366 1764.7714 422.43213 1765.4614C 420.16107 1766.5967 417.89297 1767.737 415.62744 1768.8833C 409.1079 1772.1757 402.53735 1775.3588 395.95166 1778.5161C 395.08066 1778.9362 394.20966 1779.3562 393.31226 1779.7891C 388.22842 1782.2156 383.1073 1784.4329 377.8628 1786.4888C 374.7986 1787.6982 371.78308 1789.0107 368.76416 1790.3286C 363.12894 1792.7585 357.44858 1795.009 351.70947 1797.1802C 348.719 1798.336 345.77414 1799.5677 342.82666 1800.8286C 337.2028 1803.2004 331.48697 1805.2278 325.72314 1807.2263C 321.8796 1808.563 318.08633 1809.9547 314.32666 1811.5161C 309.72012 1813.402 305.02322 1814.8339 300.25635 1816.2583C 296.81763 1817.3169 293.4145 1818.4478 290.0088 1819.6064C 282.58218 1822.1323 275.16064 1824.377 267.55713 1826.3247C 262.03766 1827.7662 256.59473 1829.4818 251.15527 1831.1978C 245.21292 1833.0292 239.22643 1834.3545 233.14038 1835.6208C 228.73154 1836.5737 224.3799 1837.6984 220.0166 1838.8391C 204.51123 1842.8827 188.92845 1845.9363 173.16309 1848.7432C 170.04367 1849.3068 166.93259 1849.8984 163.82275 1850.5122C 149.50601 1853.3096 135.08594 1855.0415 120.602066 1856.6962C 116.41588 1857.1748 112.233665 1857.6774 108.05322 1858.2036C 74.89078 1862.3354 41.906494 1863.8965 8.505859 1863.7822C 3.4567277 1863.7651 -1.5919299 1863.7754 -6.6410456 1863.7926C -31.714725 1863.865 -56.48074 1862.9899 -81.42334 1860.3911C -82.51924 1860.2771 -83.61515 1860.1631 -84.74426 1860.0455C -90.75207 1859.4042 -96.74477 1858.672 -102.73584 1857.8911C -104.47551 1857.6697 -106.215256 1857.4487 -107.95508 1857.2285C -110.51153 1856.9045 -113.067856 1856.5798 -115.62372 1856.2513C -120.11682 1855.6749 -124.61077 1855.1353 -129.11475 1854.6489C -142.47772 1853.1823 -155.55487 1850.7229 -168.70801 1847.9912C -169.41034 1847.8453 -170.11267 1847.6995 -170.83629 1847.5492C -172.24734 1847.256 -173.65828 1846.9623 -175.0691 1846.668C -180.03581 1845.6436 -185.0169 1844.7618 -190.01709 1843.9185C -198.13853 1842.531 -206.02722 1840.5837 -213.98584 1838.4536C -216.03082 1837.9136 -218.07634 1837.3756 -220.12186 1836.8378C -222.07512 1836.3236 -224.0278 1835.8074 -225.98047 1835.291C -230.03381 1834.2316 -234.09926 1833.2424 -238.17334 1832.2661C -244.76129 1830.6407 -251.18948 1828.6194 -257.6411 1826.529C -261.87726 1825.1638 -266.0785 1823.9366 -270.42334 1822.9536C -276.5786 1821.5054 -282.38245 1819.2496 -288.28345 1817.0107C -293.06427 1815.2117 -297.8016 1813.6495 -302.73584 1812.3286C -308.83484 1810.6775 -314.4327 1808.3273 -320.19678 1805.7583C -322.9008 1804.6125 -325.47186 1803.7194 -328.29834 1802.9536C -333.5454 1801.4976 -338.3867 1799.2914 -343.34448 1797.0723C -347.35336 1795.2826 -351.3685 1793.609 -355.48584 1792.0786C -361.79343 1789.6964 -367.98337 1787.063 -374.17334 1784.3911C -375.14407 1783.9756 -376.11484 1783.5602 -377.115 1783.1321C -382.38513 1780.8416 -387.44174 1778.3865 -392.40454 1775.4861C -394.54785 1774.3236 -396.70578 1773.4382 -398.98584 1772.5786C -409.5922 1768.484 -419.61115 1762.9625 -429.41895 1757.2493C -432.98715 1755.1798 -436.59354 1753.2661 -440.29834 1751.4536C -447.84927 1747.7432 -455.13422 1743.5865 -462.42334 1739.3911C -463.16937 1738.9619 -463.91544 1738.5326 -464.68408 1738.0903C -466.95468 1736.7795 -469.2211 1735.4619 -471.48584 1734.1411C -472.52066 1733.5413 -472.52066 1733.5413 -473.57642 1732.9292C -476.8454 1731.0094 -479.9864 1729.0244 -483.04443 1726.7817C -486.02463 1724.605 -489.09976 1723.0072 -492.42334 1721.3911C -494.67752 1720.0225 -496.90024 1718.6384 -499.11084 1717.2036C -499.7166 1716.8129 -500.3224 1716.4221 -500.94653 1716.0195C -505.7627 1712.8846 -510.4207 1709.5626 -515.021 1706.1177C -517.4221 1704.392 -519.88635 1702.9088 -522.42334 1701.3911C -525.07153 1699.6539 -527.68555 1697.8685 -530.29834 1696.0786C -530.9802 1695.6178 -531.6622 1695.157 -532.36475 1694.6821C -536.4158 1691.9081 -540.18604 1688.985 -543.83594 1685.699C -545.4607 1684.3604 -547.0722 1683.3877 -548.92334 1682.3911C -551.4398 1681.0332 -553.4921 1679.5637 -555.62646 1677.6606C -559.50635 1674.2781 -563.5647 1671.1763 -567.67334 1668.0786C -576.5453 1661.3395 -585.18066 1654.409 -593.5171 1647.0122C -595.48895 1645.3353 -597.5236 1643.7965 -599.61084 1642.2661C -602.85406 1639.8794 -605.6067 1637.2782 -608.42334 1634.3911C -609.58167 1633.3608 -610.74945 1632.3411 -611.92334 1631.3286C -615.716 1628.0416 -619.4219 1624.6683 -623.11084 1621.2661C -623.6574 1620.7633 -624.204 1620.2605 -624.7671 1619.7424C -627.24225 1617.4543 -629.66986 1615.1443 -632.05225 1612.7583C -634.1937 1610.6204 -636.39197 1608.6271 -638.67334 1606.6411C -662.05084 1585.6154 -662.05084 1585.6154 -669.42334 1572.3911C -669.8861 1571.5778 -670.3489 1570.7643 -670.8257 1569.9263C -682.73114 1547.5991 -685.6496 1522.4873 -678.78906 1498.1401C -676.0656 1489.2316 -672.7369 1481.0944 -667.42334 1473.3911C -666.88965 1472.5752 -666.356 1471.7592 -665.80615 1470.9185C -660.3694 1462.8135 -654.18256 1454.0912 -645.42334 1449.3911C -644.76337 1449.3911 -644.10333 1449.3911 -643.42334 1449.3911C -643.42334 1448.7311 -643.42334 1448.0712 -643.42334 1447.3911C -630.72974 1439.7904 -618.4043 1432.9584 -603.42334 1431.3911C -602.4746 1431.2815 -601.5258 1431.172 -600.54834 1431.0591C -575.6338 1428.4639 -553.3353 1433.4498 -532.42334 1447.3911C -532.42334 1448.0511 -532.42334 1448.711 -532.42334 1449.3911C -531.8871 1449.6387 -531.3508 1449.8861 -530.79834 1450.1411C -525.8907 1452.7241 -522.2702 1455.3765 -518.8296 1459.7544C -515.5364 1463.5873 -511.45523 1466.7178 -507.56396 1469.9224C -504.6429 1472.3523 -502.0582 1474.7396 -499.67334 1477.7036C -496.3766 1481.6893 -492.4574 1484.7183 -488.42334 1487.9302C -485.2679 1490.5187 -482.27963 1493.232 -479.29834 1496.0161C -474.546 1500.44 -469.61185 1504.4917 -464.42334 1508.3911C -463.5571 1509.0924 -462.69083 1509.7936 -461.79834 1510.5161C -459.32294 1512.4703 -456.77228 1514.2681 -454.16943 1516.0474C -452.42334 1517.3911 -452.42334 1517.3911 -450.49756 1519.3325C -448.3821 1521.432 -446.22424 1523.0997 -443.79834 1524.8286C -442.35202 1525.865 -442.35202 1525.865 -440.87646 1526.9224C -440.3344 1527.3091 -439.79236 1527.6958 -439.2339 1528.0942C -437.20233 1529.5494 -435.17963 1531.0164 -433.1577 1532.4849C -414.72244 1545.868 -396.0093 1558.6619 -376.37842 1570.2378C -374.2815 1571.4747 -372.18832 1572.718 -370.0952 1573.9614C -359.03174 1580.5199 -347.8692 1586.7207 -336.33862 1592.4219C -332.35034 1594.4005 -328.43256 1596.4624 -324.54834 1598.6411C -320.46692 1600.9038 -316.36642 1602.6763 -312.00928 1604.3325C -309.11932 1605.5156 -306.38596 1606.8973 -303.61084 1608.3286C -298.3781 1610.9987 -293.0658 1613.1333 -287.56396 1615.1802C -284.68115 1616.2917 -281.9059 1617.5148 -279.11084 1618.8286C -273.97818 1621.2148 -268.74286 1623.2144 -263.4319 1625.1604C -259.8186 1626.485 -256.2403 1627.8657 -252.67725 1629.3208C -247.00307 1631.6038 -241.23105 1633.541 -235.42334 1635.4536C -234.40756 1635.792 -233.39178 1636.1304 -232.34521 1636.479C -226.95131 1638.2666 -221.544 1639.9813 -216.09521 1641.5935C -212.98918 1642.5208 -209.8942 1643.4812 -206.79834 1644.4419C -191.56708 1649.1317 -176.357 1653.309 -160.76465 1656.6597C -158.3518 1657.1879 -155.94377 1657.7382 -153.53906 1658.3022C -141.63637 1661.08 -129.6542 1663.1083 -117.58203 1665.001C -114.29503 1665.5166 -111.009514 1666.0411 -107.72412 1666.5669C -88.184875 1669.6776 -68.86836 1671.8993 -49.11084 1673.0161C -47.386845 1673.1136 -47.386845 1673.1136 -45.62802 1673.2131C 14.609196 1676.5354 75.370865 1674.9496 134.69775 1663.2856C 138.50417 1662.5465 142.31357 1662.0259 146.15869 1661.5278C 154.2148 1660.4036 161.96893 1658.4435 169.82666 1656.3911C 172.58093 1655.6791 175.33632 1654.9716 178.09229 1654.2661C 179.08267 1654.0112 179.08267 1654.0112 180.09308 1653.7512C 183.63489 1652.8492 187.17064 1652.0477 190.76416 1651.3833C 196.76015 1650.2421 202.51541 1648.3585 208.32666 1646.5161C 210.64139 1645.791 212.9565 1645.067 215.27197 1644.3442C 216.368 1644.002 217.46402 1643.6598 218.59326 1643.3071C 222.11389 1642.2262 225.64854 1641.2344 229.20166 1640.2661C 234.90408 1638.6742 240.38268 1636.6558 245.90161 1634.529C 249.40942 1633.182 252.89148 1631.95 256.51416 1630.9536C 262.68515 1629.204 268.52734 1626.5974 274.42822 1624.1099C 277.14 1622.9705 279.86374 1621.8969 282.62354 1620.8794C 286.55164 1619.425 290.3755 1617.7806 294.20166 1616.0786C 295.59985 1615.4609 296.99832 1614.8438 298.39697 1614.227C 299.09338 1613.9199 299.7898 1613.6128 300.50732 1613.2964C 304.75244 1611.4393 309.02512 1609.6465 313.2954 1607.8481C 317.12177 1606.149 320.84436 1604.2856 324.57666 1602.3911C 325.83923 1601.7587 327.10223 1601.1272 328.36572 1600.4966C 330.3456 1599.5068 332.32523 1598.5167 334.3042 1597.5251C 337.53775 1595.9058 340.7742 1594.2943 344.02197 1592.7036C 351.13693 1589.205 358.12354 1585.5127 365.07666 1581.7036C 365.92584 1581.2397 366.775 1580.776 367.6499 1580.2981C 372.1052 1577.8398 376.3418 1575.2163 380.57666 1572.3911C 382.56985 1571.3776 384.56992 1570.3776 386.57666 1569.3911C 394.5602 1564.7542 402.16135 1559.6521 409.71338 1554.352C 411.86914 1552.8757 413.97812 1551.5189 416.26416 1550.2661C 422.23755 1546.885 427.7134 1542.7474 433.26025 1538.7153C 433.8918 1538.2585 434.52338 1537.8018 435.17407 1537.331C 436.42932 1536.4222 437.68152 1535.5093 438.93042 1534.5918C 443.35294 1531.3911 443.35294 1531.3911 445.57666 1531.3911C 445.57666 1530.7311 445.57666 1530.0712 445.57666 1529.3911C 447.45557 1527.8677 447.45557 1527.8677 450.13916 1526.0161C 456.92273 1521.2081 463.36615 1516.023 469.83008 1510.7969C 472.27283 1508.8308 474.73923 1506.8949 477.20166 1504.9536C 479.64127 1503.006 481.86575 1501.102 484.07666 1498.8911C 486.26773 1496.7001 488.44406 1494.9058 490.88916 1493.0161C 499.51645 1486.2208 507.47186 1478.511 515.2212 1470.7388C 517.726 1468.2422 520.322 1465.8806 522.95166 1463.5161C 532.32086 1455.0007 541.6079 1446.1608 549.7759 1436.4731C 551.78625 1434.1488 553.8751 1431.9106 555.97437 1429.6667C 560.6047 1424.7162 565.0484 1419.7589 569.07666 1414.2935C 570.7648 1412.1525 572.6457 1410.3148 574.57666 1408.3911C 586.7148 1394.21 598.2071 1379.2397 608.82275 1363.895C 610.7423 1361.1547 612.7186 1358.4608 614.70166 1355.7661C 617.1091 1352.4863 619.35956 1349.1925 621.45166 1345.7036C 622.1529 1344.6105 622.8542 1343.5173 623.57666 1342.3911C 624.23663 1342.3911 624.89667 1342.3911 625.57666 1342.3911C 625.6656 1341.6719 625.7546 1340.9525 625.8462 1340.2114C 626.71674 1336.8503 628.12775 1334.9926 630.26416 1332.2661C 633.7565 1327.6368 636.58514 1322.9446 639.2759 1317.8169C 640.85516 1314.8718 642.70996 1312.161 644.57666 1309.3911C 646.2995 1306.4216 647.93884 1303.4081 649.57666 1300.3911C 650.49286 1298.7034 651.40955 1297.0159 652.32666 1295.3286C 653.08075 1293.9403 653.08075 1293.9403 653.8501 1292.5239C 655.1103 1290.2373 656.3844 1287.9633 657.6782 1285.6958C 664.9139 1273.0071 671.5017 1260.1844 677.13916 1246.7036C 678.5513 1243.4496 680.08984 1240.3003 681.70166 1237.1411C 683.895 1232.8397 685.77954 1228.5281 687.51025 1224.0239C 689.19916 1219.8542 691.16473 1215.8165 693.1118 1211.7622C 694.5507 1208.4508 695.6864 1205.1438 696.7976 1201.7136C 698.05524 1197.9644 699.5454 1194.3116 701.01416 1190.6411C 703.4882 1184.3783 705.65875 1178.1198 707.5493 1171.6528C 708.734 1167.8915 710.1445 1164.2509 711.57666 1160.5786C 713.85626 1154.6741 715.5943 1148.846 717.0354 1142.6775C 718.5317 1136.3347 720.4138 1130.1302 722.3833 1123.9194C 724.20874 1118.0345 725.54395 1112.1083 726.7976 1106.0771C 727.5697 1102.424 728.4036 1098.7909 729.26025 1095.1567C 733.1297 1078.6456 736.26105 1062.1986 738.57666 1045.3911C 738.8991 1043.1014 739.2235 1040.812 739.54803 1038.5226C 740.553 1031.4271 741.5481 1024.3302 742.5259 1017.23096C 742.70465 1015.93536 742.8834 1014.6398 743.0676 1013.30493C 743.99646 1006.16327 744.73413 999.0562 745.1118 991.8638C 745.15497 991.05884 745.1981 990.2539 745.2426 989.42456C 748.47906 927.28204 747.5455 865.2095 736.02075 803.92554C 735.52014 801.06866 735.1177 798.20404 734.7095 795.3325C 733.48596 787.26013 731.56195 779.3815 729.63916 771.4536C 728.9401 768.54926 728.2443 765.6441 727.5493 762.7388C 727.37915 762.03107 727.20905 761.32336 727.03375 760.5942C 725.95734 756.08765 724.97253 751.5694 724.0337 747.03174C 722.74475 740.9297 721.084 735.02124 719.20166 729.0786C 718.58105 727.0854 717.96124 725.0919 717.3423 723.09814C 717.04126 722.13214 716.7403 721.16614 716.4302 720.1709C 715.4318 716.91943 714.48956 713.6542 713.5564 710.38354C 711.6211 703.6073 709.375 697.0432 706.75635 690.4966C 705.55975 687.34656 704.5832 684.1876 703.63916 680.9536C 701.85175 674.94464 699.47485 669.31586 696.94385 663.5864C 695.86615 661.0677 694.9436 658.62805 694.13916 656.0161C 692.5501 650.9557 690.34906 646.1735 688.1963 641.334C 686.55035 637.6309 684.96893 633.92474 683.51416 630.1411C 681.2422 624.3702 678.3947 618.91034 675.57666 613.3911C 674.28 610.81024 672.9912 608.2255 671.70166 605.6411C 671.0155 604.26996 670.32935 602.89886 669.64307 601.52783C 668.2912 598.82477 666.9451 596.119 665.604 593.41064C 662.10913 586.3635 658.5506 579.3534 654.88916 572.3911C 654.3546 571.36835 654.3546 571.36835 653.8093 570.32495C 651.6083 566.16736 649.24036 562.1603 646.708 558.19556C 645.2808 555.9193 643.98706 553.5722 642.6704 551.23096C 641.40454 549.1016 640.0312 547.0651 638.63916 545.0161C 636.5993 542.00244 634.7452 538.9669 633.01416 535.7661C 631.15985 532.3437 629.12714 529.2031 626.7876 526.09424C 625.57666 524.3911 625.57666 524.3911 624.14307 521.9966C 622.5781 519.3936 620.896 516.9304 619.13916 514.4536C 618.5307 513.5886 617.9223 512.7237 617.2954 511.83252C 616.7282 511.02686 616.161 510.2212 615.57666 509.3911C 611.57666 503.70508 611.57666 503.70508 611.57666 501.3911C 610.5867 501.06113 609.5967 500.7311 608.57666 500.3911C 606.5827 497.7303 604.57666 494.7787 604.57666 491.3911C 603.5867 491.06113 602.5967 490.7311 601.57666 490.3911C 600.02594 488.40033 598.60626 486.4186 597.20166 484.3286C 591.8439 476.58002 585.9579 469.32397 579.95557 462.06958C 578.7323 460.58057 577.5317 459.07303 576.3345 457.563C 574.58154 455.30917 574.58154 455.30917 572.32666 453.2036C 569.1465 449.95117 566.3907 446.47153 563.58057 442.89893C 561.801 440.6719 559.96533 438.52533 558.07666 436.3911C 555.57666 433.3911 555.57666 433.3911 555.57666 431.3911C 555.0404 431.18488 554.50415 430.9786 553.95166 430.7661C 550.65686 428.8586 547.98303 426.34293 545.57666 423.3911C 545.57666 422.7311 545.57666 422.0711 545.57666 421.3911C 544.70074 421.0218 544.70074 421.0218 543.8071 420.64502C 541.2074 419.1835 539.8152 417.6063 537.88916 415.3286C 533.4455 410.26486 528.7761 405.46866 524.01416 400.7036C 522.9523 399.6352 522.9523 399.6352 521.8689 398.54517C 517.8711 394.55756 513.7749 390.75064 509.49878 387.06372C 506.45453 384.41464 503.5202 381.65097 500.57666 378.8911C 493.50372 372.29947 486.3825 365.9504 478.70947 360.05908C 476.88492 358.6322 475.12997 357.1676 473.38916 355.6411C 468.17416 351.10684 462.66916 346.92163 457.2202 342.6748C 455.81686 341.57874 454.41885 340.47586 453.02197 339.37158C 448.50916 335.81433 443.89035 332.4655 439.1626 329.1997C 436.51617 327.34882 433.92197 325.43787 431.32666 323.5161C 426.68292 320.1246 421.91183 316.97418 417.05908 313.8943C 412.60208 311.0638 408.2075 308.15036 403.82666 305.2036C 398.176 301.41785 392.47037 297.79065 386.57666 294.3911C 384.89056 293.41852 384.89056 293.41852 383.1704 292.42627C 377.50165 289.1688 371.8152 285.94406 366.08838 282.78955C 364.0623 281.6615 362.04645 280.51917 360.0337 279.36768C 342.62726 269.43564 324.64233 260.74582 306.18994 252.93018C 301.5862 250.96924 297.00687 248.9544 292.43237 246.92627C 288.03937 244.9914 283.60422 243.18364 279.14258 241.41309C 276.64963 240.42018 274.1651 239.4087 271.68213 238.39111C 263.4743 235.0441 255.3378 231.84462 246.81494 229.37549C 243.01585 228.22064 239.30699 226.87338 235.57666 225.51611C 227.31216 222.53389 218.9202 220.12663 210.45947 217.77002C 206.50983 216.66785 202.60399 215.46443 198.70166 214.20361C 193.23682 212.49803 187.75877 211.38835 182.13525 210.33887C 177.90297 209.49817 173.74883 208.4232 169.57639 207.32759C 156.13635 203.81735 142.66763 201.34322 128.95166 199.20361C 126.88641 198.87183 124.821304 198.53914 122.75635 198.20557C 116.70141 197.23387 110.640686 196.30423 104.57666 195.39111C 103.64748 195.2494 102.71829 195.1077 101.760956 194.9617C 87.33559 192.78314 72.95303 191.50656 58.38916 190.70361C 56.72166 190.6098 56.72166 190.6098 55.020477 190.5141C 0.6328102 187.52066 -54.640194 188.11716 -108.42334 197.39111C -109.56931 197.58383 -110.715294 197.77655 -111.895996 197.9751C -116.72056 198.78679 -121.54012 199.61842 -126.35303 200.49658C -130.07132 201.17458 -133.79472 201.73082 -137.53662 202.2622C -145.3873 203.45535 -153.03934 205.34933 -160.73584 207.26611C -162.1309 207.60907 -163.52608 207.95152 -164.92139 208.29346C -168.39946 209.1474 -171.87532 210.00996 -175.35046 210.87573C -177.41673 211.38947 -179.4839 211.89941 -181.55127 212.40869C -201.8142 217.41423 -221.68404 223.19135 -241.21289 230.57178C -244.07132 231.6313 -246.95882 232.58345 -249.86084 233.51611C -255.57448 235.37961 -261.12177 237.62021 -266.68506 239.8833C -270.1609 241.29515 -273.6631 242.62946 -277.17334 243.95361C -281.9687 245.79037 -286.64316 247.7884 -291.29834 249.95361C -293.70642 251.06133 -296.12015 252.14156 -298.54834 253.20361C -307.98648 257.3353 -317.2515 261.70197 -326.4292 266.38232C -328.48782 267.42374 -330.5554 268.445 -332.62646 269.46143C -339.3119 272.74893 -345.82297 276.11453 -352.16162 280.04346C -354.3921 281.3725 -356.6465 282.5165 -358.98584 283.6411C -380.36 294.12842 -400.94476 307.88672 -420.0874 321.97705C -425.467 325.90234 -430.95996 329.67184 -436.43115 333.46777C -440.53607 336.32574 -444.5718 339.194 -448.42334 342.3911C -449.21613 343.04208 -450.00888 343.69305 -450.82568 344.36377C -451.6623 345.0534 -452.4989 345.74307 -453.36084 346.4536C -456.48813 349.02185 -459.62695 351.5621 -462.8296 354.03564C -469.75607 359.3863 -476.3594 364.9191 -482.75146 370.89893C -485.59164 373.5481 -488.49747 376.10477 -491.43115 378.64893C -494.64243 381.4572 -497.79883 384.32617 -500.9624 387.188C -503.21527 389.20486 -505.50024 391.1762 -507.79834 393.1411C -510.7165 395.67407 -513.0264 398.355 -515.42334 401.3911C -517.42334 403.05777 -519.42334 404.72446 -521.42334 406.3911C -522.0833 407.21613 -522.74335 408.0411 -523.42334 408.8911C -525.34357 411.2914 -527.4011 413.03287 -529.7866 414.9497C -532.9996 417.77924 -535.6714 421.1224 -538.42334 424.3911C -539.4635 425.62155 -540.50507 426.8508 -541.54834 428.0786C -541.9841 428.5981 -542.41974 429.11758 -542.86865 429.65283C -544.9614 431.99274 -547.202 434.17316 -549.42334 436.3911C -556.0825 443.46927 -562.3286 450.82596 -568.42334 458.3911C -570.02606 460.35062 -571.63025 462.30896 -573.23584 464.2661C -578.8593 471.07043 -578.8593 471.07043 -584.04834 478.2036C -584.8321 479.2555 -585.61584 480.30737 -586.42334 481.3911C -587.0833 481.3911 -587.74335 481.3911 -588.42334 481.3911C -588.69403 481.95316 -588.9647 482.51517 -589.24365 483.09424C -593.16345 490.7262 -598.24585 497.5839 -603.42334 504.3911C -608.0981 510.53986 -612.39417 516.7961 -616.42334 523.3911C -617.565 525.20624 -618.71094 527.0187 -619.86084 528.8286C -620.7232 530.1879 -620.7232 530.1879 -621.603 531.5747C -623.5218 534.54346 -625.50073 537.4663 -627.48584 540.3911C -630.66394 545.1245 -633.4528 549.9603 -636.11865 554.9966C -637.71106 557.9192 -639.578 560.6231 -641.42334 563.3911C -642.4185 565.3182 -643.3598 567.2678 -644.30615 569.21924C -645.4903 571.5213 -646.80804 573.6919 -648.17334 575.8911C -651.97943 582.1453 -655.1497 588.6932 -658.37354 595.2593C -660.1229 598.8118 -661.8994 602.35077 -663.67334 605.8911C -664.6094 607.76276 -665.5451 609.6346 -666.4795 611.5071C -667.14264 612.8308 -667.81 614.1524 -668.48047 615.4724C -670.24646 618.9617 -671.9171 622.4151 -673.29834 626.0786C -674.8317 630.0173 -676.5471 633.82355 -678.36084 637.6411C -681.01935 643.3255 -683.1668 649.085 -685.2163 655.0122C -686.3092 658.0716 -687.511 661.03467 -688.79834 664.0161C -693.79486 675.8004 -697.78937 688.0357 -701.51587 700.27466C -702.61316 703.8624 -703.76685 707.4197 -705.0054 710.9614C -710.0269 725.39044 -713.8575 740.0494 -717.54395 754.86304C -718.11426 757.15106 -718.691 759.43744 -719.2754 761.7219C -720.6625 767.16016 -721.89197 772.5404 -722.79834 778.0786C -724.22076 786.5271 -725.903 794.9172 -727.6221 803.3098C -729.92755 814.65027 -731.7092 825.93695 -732.86084 837.4536C -733.04706 839.2803 -733.04706 839.2803 -733.23706 841.1438C -734.8128 856.8764 -736.11945 872.63403 -737.42334 888.3911C -736.64087 887.44116 -735.8584 886.4912 -735.05225 885.51245C -733.00977 883.0327 -730.89343 880.8953 -728.42334 878.8286C -725.27386 876.1366 -722.3199 873.35834 -719.42334 870.3911C -709.3342 860.1169 -709.3342 860.1169 -705.42334 857.3911C -704.76337 857.3911 -704.10333 857.3911 -703.42334 857.3911C -703.42334 856.73114 -703.42334 856.0711 -703.42334 855.3911C -681.7095 839.0971 -654.13074 835.3942 -627.79443 839.11743C -611.2206 841.999 -594.82074 851.2059 -582.42334 862.3911C -582.42334 863.0511 -582.42334 863.7111 -582.42334 864.3911C -581.43335 864.7211 -580.44336 865.0511 -579.42334 865.3911C -576.51184 868.5241 -574.00635 871.98535 -571.42334 875.3911C -570.8304 876.1233 -570.2374 876.85547 -569.62646 877.60986C -555.5322 895.9711 -550.4019 921.0054 -553.11084 943.7036C -555.09033 957.8734 -560.22656 975.2251 -569.72565 986.3797C -570.86835 987.7336 -571.981 989.1133 -573.06384 990.51556C -580.72876 1000.3108 -589.64435 1008.88513 -598.43994 1017.65063C -600.26605 1019.47784 -602.09174 1021.3055 -603.91705 1023.1335C -608.33905 1027.5605 -612.7663 1031.9822 -617.19543 1036.402C -622.3589 1041.555 -627.517 1046.7134 -632.67505 1051.8718C -641.87775 1061.075 -651.0852 1070.2733 -660.2954 1079.469C -669.22485 1088.3843 -678.1507 1097.3031 -687.07275 1106.2258C -687.62317 1106.7762 -688.1735 1107.3267 -688.7406 1107.8938C -689.29004 1108.4432 -689.83954 1108.9928 -690.40564 1109.559C -700.5815 1119.7355 -710.7606 1129.9088 -720.94135 1140.0804C -724.5361 1143.6722 -728.1299 1147.2649 -731.7233 1150.8579C -736.557 1155.6909 -741.39343 1160.521 -746.23175 1165.3492C -748.00757 1167.1221 -749.78253 1168.8959 -751.55664 1170.6705C -753.9759 1173.0903 -756.3982 1175.507 -758.82135 1177.9229C -759.52435 1178.6274 -760.22736 1179.3319 -760.9517 1180.0579C -764.30304 1183.3927 -767.66766 1186.5046 -771.42334 1189.3911C -772.2026 1190.1722 -772.2026 1190.1722 -772.99756 1190.9692C -786.51373 1204.4484 -811.326 1212.5057 -830.0056 1212.7212C -849.16425 1212.5919 -868.52997 1208.8253 -884.42334 1197.3911C -885.5022 1196.6715 -885.5022 1196.6715 -886.60284 1195.9374C -892.69586 1191.8265 -897.9139 1187.3306 -903.08215 1182.12C -903.8929 1181.3146 -904.7036 1180.5093 -905.53894 1179.6794C -908.2303 1177.0023 -910.9109 1174.3148 -913.59155 1171.627C -915.5277 1169.6948 -917.46606 1167.765 -919.4043 1165.835C -924.1075 1161.1489 -928.8024 1156.4548 -933.4944 1151.7577C -937.3117 1147.9364 -941.1317 1144.1178 -944.9537 1140.3011C -945.77203 1139.4839 -945.77203 1139.4839 -946.60693 1138.6501C -947.7156 1137.5431 -948.82416 1136.436 -949.9328 1135.329C -960.31195 1124.9635 -970.6816 1114.5885 -981.04816 1104.2103C -990.51196 1094.7367 -999.98706 1085.2744 -1009.4678 1075.8176C -1019.2244 1066.0854 -1028.9736 1056.3458 -1038.7147 1046.5981C -1044.1749 1041.1344 -1049.638 1035.6736 -1055.1086 1030.2205C -1059.7664 1025.5775 -1064.4169 1020.9274 -1069.0586 1016.26843C -1071.4224 1013.8962 -1073.7902 1011.5283 -1076.1648 1009.16693C -1088.0768 997.3162 -1099.2207 986.0003 -1105.7983 970.2661C -1106.1141 969.5584 -1106.4299 968.8507 -1106.7554 968.1216C -1107.7169 965.8992 -1108.5881 963.66394 -1109.4233 961.3911C -1109.7118 960.61115 -1110.0002 959.8312 -1110.2974 959.0276C -1112.8851 950.979 -1112.948 943.0048 -1112.9243 934.6321C -1112.9233 932.22437 -1112.965 929.8199 -1113.0093 927.4126C -1113.1162 913.63385 -1110.102 901.40936 -1103.6733 889.1411C -1103.3353 888.48474 -1102.9974 887.82837 -1102.6492 887.1521C -1090.6003 864.4594 -1070.4066 848.6107 -1046.0718 840.9302C -1024.6647 835.0156 -999.36194 836.5865 -979.42334 846.3911C -978.5119 846.83466 -978.5119 846.83466 -977.58203 847.2871C -969.76117 851.13196 -962.58997 855.1158 -956.42334 861.3911C -955.61896 862.1955 -954.8146 862.9999 -953.98584 863.8286C -953.1402 864.67426 -952.2946 865.51984 -951.42334 866.3911C -949.9276 867.70844 -948.4272 869.0205 -946.92334 870.3286C -944.29285 872.6412 -941.86176 874.9056 -939.67334 877.6411C -937.54785 880.43414 -937.54785 880.43414 -934.92334 882.3911C -931.92816 884.78723 -929.80817 887.393 -927.42334 890.3911C -926.2384 885.54584 -926.0899 880.69904 -925.8452 875.7388C -925.73883 873.7634 -925.6315 871.7882 -925.5232 869.813C -925.46674 868.77594 -925.4103 867.7389 -925.3521 866.6704C -923.74146 837.68414 -920.3214 809.19574 -915.31006 780.60596C -914.7292 777.27075 -914.20575 773.9378 -913.7554 770.5825C -911.99536 757.50885 -909.13495 744.77 -906.1421 731.9341C -904.96545 726.87427 -903.90125 721.80786 -902.9155 716.7075C -901.61084 710.0772 -899.9384 703.62573 -898.04834 697.1411C -897.4272 694.9735 -896.8074 692.80554 -896.18896 690.6372C -895.88794 689.5826 -895.587 688.52795 -895.27686 687.4414C -894.04706 683.0464 -892.9236 678.6263 -891.79834 674.2036C -890.0697 667.4672 -887.9636 661.0166 -885.5327 654.4966C -884.549 651.7428 -883.75995 649.0369 -883.04834 646.2036C -881.4653 640.0716 -879.1969 634.2155 -876.9707 628.29517C -875.4795 624.3137 -874.0495 620.36957 -872.92334 616.2661C -871.4299 610.97437 -869.2442 605.98334 -867.11523 600.92334C -865.1913 596.329 -863.4324 591.7217 -861.79834 587.0161C -860.0186 581.91547 -857.97217 577.05743 -855.67334 572.17236C -854.2921 569.0992 -853.1031 565.9844 -851.92334 562.8286C -850.12195 558.05865 -848.08105 553.56537 -845.73584 549.04346C -844.1886 545.9168 -842.8383 542.7317 -841.48584 539.5161C -838.72455 532.9932 -835.64453 526.6963 -832.42334 520.3911C -831.2975 518.1207 -830.1725 515.84985 -829.04834 513.5786C -826.32404 508.13004 -823.5118 502.73776 -820.6262 497.37305C -818.6588 493.7145 -816.71606 490.04474 -814.79834 486.35986C -814.3521 485.50418 -813.9058 484.64847 -813.44604 483.76685C -812.5733 482.09137 -811.7032 480.41452 -810.8362 478.73608C -808.9131 475.05127 -806.9991 471.66797 -804.42334 468.3911C -803.78705 467.17825 -803.1823 465.94833 -802.61084 464.7036C -800.6948 460.74677 -798.34424 457.23328 -795.86084 453.61377C -794.5338 451.56198 -793.46063 449.5372 -792.42334 447.3286C -790.67236 443.65228 -788.4169 440.65 -785.92334 437.4458C -783.91974 434.7013 -782.3682 431.78854 -780.7593 428.80127C -776.6124 421.31998 -771.73834 414.35178 -766.6616 407.48096C -763.9884 403.7907 -761.425 400.03253 -758.86084 396.2661C -755.3984 391.1899 -751.85297 386.2458 -748.0171 381.4419C -746.3133 379.2495 -744.7424 376.99423 -743.17334 374.7036C -739.0174 368.70572 -734.49677 363.01724 -729.9497 357.31445C -728.3284 355.27155 -726.7229 353.21692 -725.11865 351.16064C -724.03296 349.77896 -722.947 348.39743 -721.86084 347.0161C -721.09186 346.02478 -721.09186 346.02478 -720.3074 345.01343C -719.05865 343.43515 -717.74646 341.9075 -716.42334 340.3911C -715.76337 340.3911 -715.10333 340.3911 -714.42334 340.3911C -714.17584 339.66925 -713.92834 338.94736 -713.67334 338.2036C -712.30066 335.11505 -710.6998 332.881 -708.42334 330.3911C -707.76337 330.3911 -707.10333 330.3911 -706.42334 330.3911C -706.15393 329.8033 -705.8845 329.21548 -705.60693 328.60986C -704.42035 326.38553 -703.16534 324.76364 -701.48584 322.8911C -700.8684 322.20016 -700.2509 321.50925 -699.61475 320.79736C -696.5794 317.46442 -693.5335 314.14114 -690.4812 310.82373C -686.0574 306.01047 -681.7271 301.1236 -677.5132 296.1255C -676.88544 295.38815 -676.2576 294.6508 -675.61084 293.8911C -675.04755 293.2208 -674.4842 292.55048 -673.9038 291.85986C -672.42334 290.3911 -672.42334 290.3911 -670.42334 290.3911C -670.1513 289.79407 -669.8793 289.19705 -669.59894 288.5819C -668.4479 286.43686 -667.32733 285.04727 -665.6135 283.33838C -665.0492 282.771 -664.4849 282.2036 -663.9035 281.61902C -662.99097 280.7173 -662.99097 280.7173 -662.06006 279.79736C -661.4311 279.16882 -660.80206 278.54028 -660.154 277.8927C -658.82404 276.56573 -657.49164 275.2412 -656.157 273.91895C -654.1235 271.90363 -652.098 269.8805 -650.0737 267.85596C -648.77795 266.56512 -647.48175 265.27475 -646.18506 263.98486C -645.5828 263.38373 -644.9805 262.78256 -644.36005 262.1632C -641.18494 259.0234 -637.95337 256.13727 -634.42334 253.39111C -632.734 251.74744 -631.07074 250.07683 -629.42334 248.39111C -622.8628 241.6892 -616.1536 235.43448 -608.67334 229.76611C -605.37335 227.24458 -602.98895 224.6645 -600.42334 221.39111C -598.4373 220.03702 -596.4352 218.70654 -594.42334 217.39111C -593.1777 216.34802 -591.94977 215.2835 -590.73584 214.20361C -582.36285 206.75922 -573.5559 199.91446 -564.6394 193.14111C -559.8543 189.50269 -555.14166 185.79935 -550.50146 181.97705C -548.2381 180.24974 -545.8655 178.8518 -543.42334 177.39111C -542.05176 176.35123 -540.6976 175.28795 -539.36084 174.20361C -534.85956 170.65192 -530.15955 167.49013 -525.36865 164.34424C -522.8255 162.6578 -520.33936 160.92012 -517.86084 159.14111C -512.068 155.04535 -506.0405 151.31912 -500.0227 147.56592C -499.22937 147.06995 -498.43604 146.57399 -497.61865 146.06299C -496.90726 145.62051 -496.19586 145.17804 -495.4629 144.72217C -494.06644 143.8108 -492.7022 142.84863 -491.36963 141.84619C -488.5543 139.7414 -485.48907 138.09666 -482.42334 136.39111C -475.60236 132.53506 -468.8178 128.671 -462.17334 124.51611C -450.78842 117.45774 -439.02545 111.08526 -427.00537 105.180176C -422.10104 102.755035 -417.28275 100.16551 -412.45825 97.58618C -399.59152 90.719696 -399.59152 90.719696 -393.67334 88.51611C -389.846 87.0238 -386.2072 85.32126 -382.54834 83.45361C -377.57233 80.917816 -372.53326 78.71116 -367.36084 76.60986C -364.49033 75.418915 -361.67758 74.14097 -358.86084 72.82861C -354.43774 70.79399 -349.96716 69.10598 -345.37646 67.492676C -341.97922 66.22546 -338.68027 64.78715 -335.36084 63.328613C -330.7102 61.30747 -326.17966 59.64729 -321.30225 58.297363C -317.32553 57.045532 -313.48367 55.493137 -309.61084 53.953613C -303.39856 51.49215 -297.19946 49.307323 -290.7827 47.42627C -285.96774 45.94258 -281.2395 44.22885 -276.50903 42.496338C -272.6089 41.08721 -268.7431 39.936146 -264.70337 38.972168C -260.8272 37.984352 -257.0145 36.78546 -253.18726 35.624756C -241.17368 31.983377 -229.15413 28.762201 -216.91748 25.976562C -214.37314 25.379332 -211.84361 24.739052 -209.31396 24.08252C -208.4618 23.862331 -207.60966 23.642143 -206.73169 23.415283C -205.16843 23.00868 -203.6065 22.5969 -202.04663 22.17749C -195.9504 20.603516 -189.80026 19.589954 -183.59102 18.586533C -178.17932 17.70468 -172.799 16.716623 -167.42334 15.637207C -166.31058 15.414874 -166.31058 15.414874 -165.17534 15.188049C -162.17358 14.586589 -159.17253 13.982013 -156.17334 13.36792C -146.46324 11.386075 -136.83372 9.869763 -126.97412 8.867432C -122.36212 8.3978405 -117.76939 7.811526 -113.17334 7.2075195C -111.5549 6.999434 -109.93641 6.791756 -108.31787 6.5844727C -105.91776 6.276785 -103.51827 5.9663825 -101.12012 5.643799C -67.56547 1.1506958 -33.819054 -0.12254397 0 0z" stroke="none" fill="#2A6FC9" fill-rule="nonzero" /><path transform="matrix(1 0 0 1 1072 478)" d="M0 0C 0.7695703 0.4086328 1.5391406 0.8172656 2.3320312 1.2382812C 22.597809 12.588768 36.56279 34.6201 42.996094 56.367188C 44.940247 63.827522 46.125587 71.08337 46.123047 78.811554C 46.124203 79.4629 46.125355 80.11425 46.126545 80.78533C 46.12918 82.95892 46.124714 85.13243 46.120255 87.306015C 46.12069 88.883606 46.121567 90.4612 46.122845 92.03879C 46.125076 96.36698 46.121082 100.695145 46.116066 105.02334C 46.111744 109.69334 46.11321 114.36333 46.113968 119.033325C 46.11449 127.12214 46.111355 135.21094 46.105732 143.29976C 46.097603 154.99481 46.094997 166.68985 46.093742 178.38492C 46.091553 197.35956 46.0849 216.3342 46.07544 235.30884C 46.06626 253.74048 46.05918 272.17212 46.05493 290.60376C 46.05467 291.73996 46.054405 292.87616 46.054134 294.0468C 46.05283 299.74686 46.051567 305.44687 46.050323 311.1469C 46.03996 358.43127 46.022346 405.71564 46 453C 46.81107 452.99847 47.622135 452.99695 48.457783 452.9954C 96.5573 452.90582 144.6568 452.83722 192.75638 452.79575C 198.53526 452.79074 204.31413 452.78555 210.09302 452.78027C 211.24345 452.77924 212.3939 452.77817 213.57921 452.7771C 232.1927 452.7597 250.80614 452.72818 269.4196 452.69138C 288.52704 452.65396 307.63446 452.63174 326.74194 452.62366C 338.52673 452.61816 350.31137 452.60086 362.0961 452.56833C 370.18375 452.54715 378.27133 452.5408 386.359 452.546C 391.02112 452.54855 395.68295 452.5447 400.345 452.52316C 404.62225 452.50357 408.89908 452.5028 413.17633 452.51642C 414.71497 452.51807 416.25363 452.51312 417.79218 452.50046C 431.8124 452.3919 444.19772 455.21414 457 461C 457.79535 461.34546 458.5907 461.69095 459.41016 462.04688C 481.4297 472.23657 497.32513 492.05823 506.06348 514.2947C 507.5889 518.7012 508.46017 523.16205 509.25 527.75C 509.4184 528.7123 509.58676 529.67456 509.76025 530.666C 513.26697 551.85547 510.33353 574.5337 499 593C 498.25363 594.3129 498.25363 594.3129 497.4922 595.65234C 493.21417 603.0997 488.13794 609.0194 482 615C 481.175 615.84564 480.35 616.6912 479.5 617.5625C 475.143 621.81055 470.7021 624.86017 465.35938 627.71484C 463.88657 628.5171 462.4334 629.35803 461.01562 630.2539C 456.222 633.2174 451.2985 635.05145 445.9375 636.6875C 445.2962 636.8899 444.65488 637.0923 443.99414 637.3008C 430.07788 641.319 415.55835 641.2925 401.2089 641.2607C 399.25348 641.26373 397.29807 641.26764 395.34265 641.2723C 390.0111 641.28253 384.67963 641.2804 379.34808 641.2761C 373.58176 641.2736 367.81546 641.28265 362.0491 641.29016C 350.76852 641.30286 339.48795 641.3047 328.20734 641.30237C 319.03406 641.30054 309.8608 641.3023 300.68753 641.3066C 298.72574 641.30743 298.72574 641.30743 296.7243 641.30835C 294.06696 641.3096 291.40964 641.3108 288.75232 641.312C 270.92307 641.31995 253.09381 641.3237 235.26456 641.3197C 234.56831 641.3195 233.87207 641.3194 233.15474 641.3192C 229.62645 641.3184 226.09818 641.31757 222.5699 641.3167C 221.86925 641.3165 221.16861 641.31635 220.44673 641.3162C 219.02986 641.31586 217.61299 641.3155 216.19612 641.3151C 194.15376 641.3098 172.11145 641.31775 150.06909 641.3362C 125.26558 641.35693 100.4621 641.3676 75.65858 641.3636C 62.539936 641.3617 49.42133 641.36414 36.302692 641.3783C 25.135056 641.39026 13.967474 641.3916 2.799834 641.3795C -2.8916433 641.37366 -8.583013 641.3725 -14.274483 641.3845C -19.496183 641.39545 -24.717688 641.3922 -29.93938 641.3783C -31.816751 641.3756 -33.694138 641.3779 -35.57149 641.386C -62.911976 641.4952 -90.5599 636.8643 -110.88672 617.04297C -112.98744 614.93427 -112.98744 614.93427 -115.49219 613.08984C -131.76556 599.5287 -140.84912 574.82806 -142.79652 554.2622C -143.26068 546.8207 -143.14047 539.35657 -143.13371 531.9035C -143.13559 529.95044 -143.13788 527.9973 -143.14058 526.04425C -143.14668 520.6914 -143.14656 515.3386 -143.14539 509.98584C -143.14517 504.2072 -143.1507 498.4286 -143.15544 492.65C -143.16374 481.3338 -143.16649 470.01764 -143.16705 458.70148C -143.16753 449.50134 -143.16959 440.30118 -143.17276 431.10104C -143.18013 409.25073 -143.18628 387.40042 -143.18576 365.55008C -143.18575 364.85175 -143.18573 364.1534 -143.18571 363.43393C -143.18562 359.8947 -143.18553 356.3555 -143.18542 352.81625C -143.18541 352.1134 -143.18538 351.41055 -143.18536 350.68637C -143.18532 349.265 -143.18529 347.84366 -143.18524 346.4223C -143.18463 324.31384 -143.19212 302.20538 -143.20581 280.09692C -143.22119 255.24004 -143.22978 230.38315 -143.22885 205.52625C -143.22852 192.37187 -143.23125 179.21753 -143.24202 166.06317C -143.25114 154.86307 -143.2533 143.66301 -143.24652 132.4629C -143.24326 126.75174 -143.24318 121.04061 -143.25186 115.329445C -143.25975 110.094185 -143.25829 104.85901 -143.24959 99.62375C -143.24805 97.73685 -143.24985 95.84994 -143.25545 93.96304C -143.30223 77.052345 -141.57652 62.05626 -136 46C -135.73833 45.131172 -135.47664 44.262344 -135.20703 43.367188C -129.47743 26.207476 -113.15266 8.063298 -97.125 -0.0625C -96.4534 -0.37445313 -95.7818 -0.68640625 -95.08984 -1.0078125C -92.97731 -1.9778931 -92.97731 -1.9778931 -90.94141 -3.1796875C -63.02137 -18.760714 -26.917519 -15.747885 0 0z" stroke="none" fill="#1BAFF6" fill-rule="nonzero" /><path transform="matrix(1 0 0 1 133 846)" d="M0 0C 0.91144776 0.44351807 0.91144776 0.44351807 1.8413086 0.8959961C 9.662164 4.7408752 16.83338 8.7246475 23 15C 24.206562 16.206562 24.206562 16.206562 25.4375 17.4375C 26.283125 18.283125 27.12875 19.12875 28 20C 29.49574 21.31735 30.99617 22.62939 32.5 23.9375C 35.130505 26.25008 37.56157 28.51446 39.75 31.25C 41.850445 34.024548 41.850445 34.024548 44.3755 35.849354C 47.10223 38.083775 49.074715 40.386604 51.24199 43.16034C 55.58734 48.57246 60.22575 53.52804 65.128174 58.43457C 65.99113 59.30585 66.85409 60.17713 67.743195 61.074814C 70.07575 63.42712 72.41263 65.77494 74.75251 68.11996C 76.21679 69.587906 77.67976 71.05714 79.14234 72.52679C 84.250946 77.659744 89.36512 82.78709 94.48413 87.90967C 99.250084 92.67928 104.00266 97.46195 108.74957 102.25052C 112.83946 106.37503 116.93886 110.48994 121.045746 114.59753C 123.49308 117.045654 125.93626 119.497604 128.36974 121.95951C 131.07231 124.69297 133.79445 127.406395 136.5188 130.11816C 137.3225 130.93669 138.12619 131.75522 138.95424 132.59856C 139.69559 133.33014 140.43694 134.06174 141.20076 134.81549C 142.16217 135.77992 142.16217 135.77992 143.143 136.76382C 144.91565 138.21703 144.91565 138.21703 147.06001 137.85393C 150.36684 136.39836 152.66318 133.72487 155.15796 131.18262C 155.76498 130.57603 156.37201 129.96944 156.99744 129.34447C 159.00418 127.33563 161.00008 125.31637 162.9961 123.296875C 164.39021 121.897156 165.785 120.49809 167.18044 119.09967C 170.85616 115.41248 174.5228 111.716385 178.18762 108.01837C 181.90681 104.26861 185.63438 100.527214 189.36133 96.78516C 195.38802 90.7321 201.40953 84.67398 207.42427 78.609055C 207.95546 78.07353 208.48663 77.53802 209.03392 76.98627C 209.53412 76.48191 210.03432 75.977554 210.54967 75.45791C 211.9612 74.03901 213.3795 72.626854 214.79799 71.214905C 216.59242 69.40997 218.2169 67.60142 219.8125 65.625C 222.64157 62.270943 225.7806 59.4689 229.11328 56.625C 233.8793 52.520103 237.80429 47.983906 241.52344 42.929688C 245.04417 38.23006 248.66672 34.308754 253.16797 30.539062C 255.59756 28.49799 257.78378 26.270258 260 24C 270.0891 13.725779 270.0891 13.725779 274 11C 274.66 11 275.32 11 276 11C 276 10.34 276 9.68 276 9C 297.71384 -7.294018 325.29257 -10.996897 351.6289 -7.2736816C 368.2028 -4.392087 384.6026 4.814782 397 16C 397 16.66 397 17.32 397 18C 397.99 18.33 398.98 18.66 400 19C 402.9115 22.133022 405.41696 25.59422 408 29C 408.59296 29.732187 409.18594 30.464375 409.79688 31.21875C 423.89108 49.580025 429.02142 74.61429 426.3125 97.3125C 424.33298 111.4823 419.19678 128.83398 409.6977 139.98856C 408.555 141.34245 407.4423 142.7222 406.35947 144.12442C 398.6946 153.9197 389.77896 162.494 380.9834 171.25952C 379.1573 173.08672 377.33157 174.91435 375.5063 176.74239C 371.08432 181.16937 366.65707 185.59105 362.22794 190.01088C 357.06445 195.16391 351.90628 200.32222 346.7483 205.48071C 337.5456 214.68388 328.33813 223.88223 319.12793 233.07788C 310.19852 241.9932 301.2726 250.91202 292.3506 259.83472C 291.8002 260.38513 291.24982 260.93558 290.68274 261.5027C 290.13327 262.0522 289.58383 262.60168 289.0177 263.16782C 278.84186 273.3444 268.6627 283.51764 258.48203 293.68936C 254.88727 297.28113 251.29349 300.87384 247.70001 304.46686C 242.86633 309.29977 238.02988 314.12988 233.19157 318.95813C 231.41576 320.73102 229.6408 322.50476 227.86673 324.2794C 225.44745 326.69916 223.02513 329.11584 220.60199 331.5317C 219.89897 332.2363 219.19597 332.94086 218.47165 333.66675C 215.12029 337.00156 211.7557 340.1135 208 343C 207.48051 343.52078 206.96101 344.04156 206.42578 344.57812C 192.90959 358.05728 168.09737 366.11456 149.41772 366.33008C 130.25911 366.2008 110.89339 362.43423 95 351C 94.28077 350.52026 93.56154 350.04056 92.82051 349.5463C 86.72746 345.4354 81.50948 340.93942 76.34117 335.72885C 75.53043 334.9235 74.719696 334.11813 73.88439 333.2884C 71.193054 330.61127 68.51245 327.92365 65.83179 325.23584C 63.89563 323.30374 61.95726 321.37387 60.019028 319.44388C 55.315884 314.75787 50.620888 310.06378 45.92893 305.36658C 42.11165 301.54523 38.29161 297.72665 34.46964 293.91003C 33.92407 293.3652 33.3785 292.82037 32.8164 292.25906C 31.707785 291.15198 30.599165 290.0449 29.490543 288.9378C 19.111368 278.57233 8.741764 268.19733 -1.6248149 257.81927C -11.0885935 248.34557 -20.563751 238.88333 -30.04445 229.42656C -39.801094 219.69437 -49.55027 209.95473 -59.29138 200.20699C -64.75158 194.7433 -70.21456 189.28247 -75.68529 183.82933C -80.34303 179.18637 -84.99356 174.53633 -89.63524 169.8773C -91.999016 167.50507 -94.36677 165.1372 -96.7414 162.77579C -108.65338 150.9251 -119.79735 139.6092 -126.375 123.875C -126.84873 122.81345 -126.84873 122.81345 -127.33203 121.73047C -128.29361 119.508064 -129.1648 117.272835 -130 115C -130.28842 114.22004 -130.57686 113.44007 -130.87402 112.636475C -133.46175 104.587906 -133.52461 96.6137 -133.50098 88.24097C -133.50002 85.83324 -133.54166 83.42875 -133.58594 81.021484C -133.6929 67.24273 -130.67867 55.018265 -124.25 42.75C -123.912025 42.093624 -123.57405 41.437252 -123.22583 40.760986C -111.17698 18.068296 -90.98322 2.219624 -66.64844 -5.4609375C -45.241375 -11.375466 -19.938614 -9.804629 0 0z" stroke="none" fill="#1BAFF5" fill-rule="nonzero" /><path transform="matrix(1 0 0 1 228 1196)" d="M0 0C 4.82748 1.412921 8.716236 3.4297416 13 6C 12.01 6.495 12.01 6.495 11 7C 8.652344 6.0742188 8.652344 6.0742188 5.9375 4.6875C 5.0390234 4.237617 4.140547 3.7877343 3.2148438 3.3242188C 1 2 1 2 0 0z" stroke="none" fill="#1D9DEA" fill-rule="nonzero" /></g></g></svg>